Coordinates
version=1
nRows=8
nColumns=63
inDegrees=yes

Units are S.I. units (second, meters, Newtons, ...)
If the header above contains a line with 'inDegrees', this indicates whether rotational values are in degrees (yes) or radians (no).

endheader
time	pelvis_tilt	pelvis_list	pelvis_rotation	pelvis_tx	pelvis_ty	pelvis_tz	hip_flexion_r	hip_adduction_r	hip_rotation_r	knee_angle_r	knee_angle_r_beta	ankle_angle_r	subtalar_angle_r	mtp_angle_r	hip_flexion_l	hip_adduction_l	hip_rotation_l	knee_angle_l	knee_angle_l_beta	ankle_angle_l	subtalar_angle_l	mtp_angle_l	L5_S1_Flex_Ext	L5_S1_Lat_Bending	L5_S1_axial_rotation	L4_L5_Flex_Ext	L4_L5_Lat_Bending	L4_L5_axial_rotation	L3_L4_Flex_Ext	L3_L4_Lat_Bending	L3_L4_axial_rotation	L2_L3_Flex_Ext	L2_L3_Lat_Bending	L2_L3_axial_rotation	L1_L2_Flex_Ext	L1_L2_Lat_Bending	L1_L2_axial_rotation	L1_T12_Flex_Ext	L1_T12_Lat_Bending	L1_T12_axial_rotation	Abs_r3	Abs_r2	Abs_r1	Abs_t1	Abs_t2	neck_flexion	neck_bending	neck_rotation	arm_flex_r	arm_add_r	arm_rot_r	elbow_flex_r	pro_sup_r	wrist_flex_r	wrist_dev_r	arm_flex_l	arm_add_l	arm_rot_l	elbow_flex_l	pro_sup_l	wrist_flex_l	wrist_dev_l
11.338983	-1.647900	10.436066	88.109378	0.376297	0.829745	0.656138	-7.156150	-0.229251	17.780360	7.389493	0.128971	34.126839	-11.135907	0.000000	-6.548717	-3.338331	-9.968109	5.769062	0.100689	37.354327	15.513823	0.000000	-0.051259	-1.141567	1.416286	-0.095193	-1.518285	1.504804	-0.084213	-2.775607	1.504804	-0.058584	-2.775607	1.239250	-0.047599	-2.327884	1.150732	-0.029289	-1.768288	1.062215	-0.366136	-12.913638	7.876958	0.000000	0.000000	-1.531651	1.420802	-12.505546	124.432267	-62.247757	39.701290	71.591543	83.514305	16.636406	-14.523392	32.749333	-17.231388	5.988997	103.307607	87.321512	-14.370934	-15.403115
11.355932	-1.599254	10.706771	87.847197	0.376859	0.830239	0.655447	-7.564203	-0.207791	17.859853	7.098330	0.123889	34.204676	-11.138822	0.000000	-6.961307	-3.357585	-9.918189	5.656896	0.098731	37.363032	15.324526	0.000000	-0.032249	-1.117909	1.435418	-0.059890	-1.486818	1.525132	-0.052982	-2.718083	1.525132	-0.036858	-2.718083	1.255991	-0.029947	-2.279639	1.166277	-0.018427	-1.731640	1.076564	-0.230354	-12.646006	7.983364	0.000000	0.000000	-1.793510	1.178785	-12.157515	121.498740	-60.519202	41.535760	74.725490	82.368319	15.290230	-13.919677	32.174882	-17.032948	5.567518	103.253282	87.181476	-13.866474	-15.126540
11.372881	-1.518511	10.949282	87.612710	0.377359	0.830711	0.654770	-7.970040	-0.150502	18.103829	6.729859	0.117458	34.202946	-11.384644	0.000000	-7.345781	-3.402449	-9.746345	5.516597	0.096283	37.365533	15.034852	0.000000	-0.017048	-1.091130	1.473311	-0.031660	-1.451203	1.565393	-0.028008	-2.652973	1.565393	-0.019484	-2.652973	1.289147	-0.015831	-2.225032	1.197065	-0.009741	-1.690160	1.104983	-0.121772	-12.343080	8.194115	0.000000	0.000000	-1.862943	0.950257	-11.851956	118.945131	-58.740217	43.432877	77.599464	80.476455	14.734752	-12.284822	31.646651	-16.758702	5.274686	103.222992	87.026078	-13.188462	-14.874783
11.389831	-1.422426	11.139129	87.425550	0.377847	0.831145	0.654214	-8.300794	-0.067281	18.224584	6.371567	0.111205	34.220213	-11.547274	0.000000	-7.642269	-3.476184	-9.569480	5.403587	0.094310	37.385247	14.804630	0.000000	-0.007244	-1.066767	1.538012	-0.013452	-1.418800	1.634137	-0.011901	-2.593737	1.634137	-0.008279	-2.593737	1.345760	-0.006726	-2.175351	1.249635	-0.004139	-1.652422	1.153509	-0.051741	-12.067480	8.553960	0.000000	0.000000	-1.623773	0.847085	-11.699091	116.856865	-57.095040	45.508239	80.389027	78.495772	14.360099	-9.580358	31.229761	-16.382075	5.179021	103.216490	86.879173	-12.425783	-14.514108
11.406780	-1.294668	11.289105	87.265192	0.378257	0.831521	0.653810	-8.563491	0.050851	18.260033	6.039468	0.105409	34.245372	-11.655420	0.000000	-7.865434	-3.586596	-9.406154	5.326340	0.092962	37.438103	14.614241	0.000000	-0.005988	-1.042476	1.635649	-0.011120	-1.386493	1.737877	-0.009838	-2.534676	1.737877	-0.006844	-2.534676	1.431193	-0.005561	-2.125817	1.328965	-0.003422	-1.614795	1.226737	-0.042772	-11.792694	9.096988	0.000000	0.000000	-1.074891	0.849514	-11.790941	115.382770	-55.611585	47.844396	82.967760	76.432134	14.501848	-5.910634	30.956692	-15.877844	5.311906	103.189774	86.760579	-11.591272	-14.130998
11.423729	-1.127151	11.392903	87.120138	0.378631	0.831850	0.653562	-8.752967	0.215114	18.246096	5.735061	0.100096	34.255885	-11.737390	0.000000	-8.020465	-3.742667	-9.267516	5.262506	0.091848	37.508092	14.465527	0.000000	-0.009398	-1.017919	1.758380	-0.017453	-1.353833	1.868279	-0.015440	-2.474969	1.868279	-0.010741	-2.474969	1.538582	-0.008727	-2.075741	1.428684	-0.005370	-1.576757	1.318785	-0.067128	-11.514909	9.779581	0.000000	0.000000	-0.203243	0.982458	-12.104127	114.364202	-54.266664	50.318232	85.342123	74.315875	15.102246	-1.376040	30.817650	-15.279429	5.643137	103.120992	86.702198	-10.797749	-13.735413
11.440678	-0.978378	11.468610	86.988166	0.379010	0.832171	0.653530	-8.852480	0.356779	17.920005	5.525452	0.096437	34.368506	-11.420939	0.000000	-8.124715	-3.884927	-9.160672	5.209448	0.090922	37.556400	14.352527	0.000000	-0.014662	-0.999332	1.873614	-0.027229	-1.329112	1.990715	-0.024089	-2.429777	1.990715	-0.016757	-2.429777	1.639412	-0.013615	-2.037839	1.522311	-0.008378	-1.547966	1.405210	-0.104731	-11.304647	10.420479	0.000000	0.000000	0.869653	1.230594	-12.468084	112.847138	-52.859425	51.850318	87.620828	72.540361	15.617771	3.527732	30.739351	-14.744024	6.033231	103.080361	86.740997	-10.236499	-13.275266
11.457627	-0.862093	11.525679	86.913944	0.379385	0.832496	0.653679	-8.901845	0.474474	17.448925	5.370520	0.093733	34.500039	-10.975691	0.000000	-8.178179	-4.006645	-9.065422	5.182444	0.090451	37.588803	14.294693	0.000000	-0.021765	-0.989606	1.971546	-0.040420	-1.316176	2.094767	-0.035758	-2.406128	2.094767	-0.024875	-2.406128	1.725102	-0.020211	-2.018005	1.601881	-0.012437	-1.532900	1.478659	-0.155466	-11.194621	10.965145	0.000000	0.000000	2.085636	1.637674	-12.961303	111.120070	-51.430294	52.976456	89.742841	70.961603	15.796707	8.368381	30.746031	-14.278993	6.480869	103.021975	86.854105	-9.924093	-12.794665
